<?xml version="1.0" standalone="no"?>
<!DOCTYPE svg PUBLIC "-//W3C//DTD SVG 20010904//EN"
 "http://www.w3.org/TR/2001/REC-SVG-20010904/DTD/svg10.dtd">
<svg version="1.0" xmlns="http://www.w3.org/2000/svg"
 width="700.000000pt" height="700.000000pt" viewBox="0 0 700.000000 700.000000"
 preserveAspectRatio="xMidYMid meet">
<metadata>
Created by potrace 1.14, written by Peter Selinger 2001-2017
</metadata>
<g transform="translate(0.000000,700.000000) scale(0.100000,-0.100000)"
fill="#000000" stroke="none">
<path d="M587 4760 c-10 -4 -12 -269 -12 -1235 l0 -1230 268 0 267 -1 0 467 0
468 501 0 c276 0 504 2 507 5 6 6 10 454 4 474 -3 9 -114 12 -508 12 l-504 0
0 274 0 274 548 1 c301 0 553 0 560 0 9 1 12 57 12 246 l0 245 -22 1 c-119 3
-1612 3 -1621 -1z"/>
<path d="M2612 4759 c-15 -5 -17 -28 -17 -243 l-1 -236 31 -1 c16 0 220 -1
453 -1 232 -1 422 -4 421 -7 0 -3 -122 -96 -271 -206 -149 -110 -285 -212
-301 -226 l-31 -26 27 -57 c15 -31 27 -59 27 -61 0 -3 16 -39 35 -81 19 -41
35 -81 35 -88 0 -6 4 -16 8 -21 5 -6 30 -60 56 -122 l48 -111 41 14 c175 62
366 37 458 -58 67 -71 93 -193 61 -288 -22 -64 -102 -141 -177 -170 -169 -63
-529 -4 -815 135 -55 27 -96 42 -99 36 -4 -6 -6 -124 -6 -263 l0 -253 40 -21
c22 -11 49 -23 60 -27 11 -3 50 -17 88 -31 72 -28 199 -63 257 -72 19 -3 55
-10 80 -16 94 -20 357 -17 484 6 118 22 271 84 363 147 133 92 263 279 287
414 3 17 9 50 14 75 13 70 4 223 -18 312 -21 84 -73 202 -113 253 -133 173
-322 265 -539 260 l-77 -2 33 26 c19 14 68 51 110 81 78 56 139 101 398 291
l144 107 0 260 c-1 143 -4 264 -8 268 -9 8 -1561 12 -1586 3z"/>
<path d="M4829 4757 c-3 -3 -6 -67 -13 -237 -4 -91 -9 -217 -11 -280 -7 -167
-13 -333 -20 -515 l-5 -160 96 -75 c53 -41 131 -103 172 -137 42 -35 80 -63
85 -63 5 0 41 15 80 34 204 97 434 76 561 -50 102 -102 106 -306 8 -411 -89
-96 -173 -125 -342 -119 -63 3 -128 7 -145 10 -16 4 -55 11 -85 17 -89 18
-227 67 -347 124 -62 30 -114 53 -114 52 -5 -6 -4 -519 0 -526 3 -5 58 -29
121 -54 160 -63 336 -107 485 -122 66 -7 263 -7 295 -1 14 3 41 7 60 10 78 10
184 43 272 87 220 107 376 310 423 548 58 292 -17 565 -209 757 -115 115 -231
175 -401 209 -93 19 -298 13 -385 -10 -36 -9 -70 -18 -77 -19 -7 -1 -16 -5
-19 -9 -4 -4 -14 -7 -22 -7 -12 0 -13 22 -8 138 12 239 17 316 22 321 3 3 229
6 502 6 l497 0 0 240 0 240 -737 2 c-406 1 -739 1 -739 0z"/>
</g>
</svg>
