<svg xmlns="http://www.w3.org/2000/svg" width="100" height="100" xmlns:v="https://vecta.io/nano"><path d="M8.35 32.1v35h7.4V53.75h14.449V47H15.75v-8.1h16V32.1zm28.85 0v6.65h13.352l-9 6.75 3.25 7.6c.75-.3 1.95-.699 3.25-.699 2.95 0 5.049 1.6 5.049 4.25 0 2.35-1.9 4.299-5.15 4.299-3.5 0-7.7-1.25-10.75-3v7.352c2.6 1.25 6.35 2.549 10.75 2.549 8.3 0 13-4.849 13-10.799 0-5.9-3.95-10.15-9.25-10.15-.75 0-1.549.099-2.049.199l10.299-7.549V32.1zm31.852.051l-.65 16.799 5 4c.9-.65 2.649-1.449 4.699-1.449 3.65 0 5.701 2.049 5.701 4.699 0 3-2.401 4.801-5.451 4.801-3.6 0-7.399-1.25-10.449-3v7.35c2.65 1.2 6.25 2.551 10.9 2.551 8.05 0 12.85-5.251 12.85-11.701 0-6.85-4.8-11.35-11.15-11.35-2.5 0-4.25.6-5.25 1l.35-7.049H90v-6.65z" stroke="#000" stroke-width=".265" stroke-linejoin="round"/></svg>