<svg xmlns="http://www.w3.org/2000/svg" width="604.215" height="104.104"><path d="M.5 101.3h21.312V62.852h41.616v-19.44H21.812V20.084h46.08V.5H.5zm81.935 0h67.968V80.708h-46.656V.5H82.435zm155.376 0h22.608L221.395.5h-25.776l-39.024 100.8h22.32l7.632-20.592h43.488zm-44.064-39.888l14.4-38.736 14.544 38.736zM347.539 101.3l-19.872-37.296c12.24-4.896 19.584-16.272 19.584-30.528C347.251 14.612 333.427.5 312.547.5h-41.184v100.8h21.312V66.884h14.688l16.848 34.416zm-54.864-82.224h15.984c9.072 0 15.84 4.752 15.84 14.4 0 9.36-6.336 14.4-15.84 14.4h-15.984zm69.84 82.224h67.392V81.716h-46.512V60.26h42.048V41.252h-42.048V19.508h46.512V.5h-67.392zm126.144-58.176a32.72 32.72 0 0 0-5.904.576l29.664-21.744V.5h-65.52v19.152h38.448l-25.92 19.44 9.36 21.888c2.16-.864 5.616-2.016 9.36-2.016 8.496 0 14.544 4.608 14.544 12.24 0 6.768-5.472 12.384-14.832 12.384-10.08 0-22.176-3.6-30.96-8.64v21.168c7.488 3.6 18.288 7.344 30.96 7.344 23.904 0 37.44-13.968 37.44-31.104 0-16.992-11.376-29.232-26.64-29.232zm82.944-5.904c-7.2 0-12.24 1.728-15.12 2.88l1.008-20.304h41.472V.644h-60.336l-1.872 48.384 14.4 11.52c2.592-1.872 7.632-4.176 13.536-4.176 10.512 0 16.416 5.904 16.416 13.536 0 8.64-6.912 13.824-15.696 13.824-10.368 0-21.312-3.6-30.096-8.64V96.26c7.632 3.456 18 7.344 31.392 7.344 23.184 0 37.008-15.12 37.008-33.696 0-19.728-13.824-32.688-32.112-32.688z"/></svg>
