<svg xmlns="http://www.w3.org/2000/svg" width="934.838" height="136.504"><path d="M.5 104.9h21.312V66.452h41.616v-19.44H21.812V23.684h46.08V4.1H.5zm81.935 0h67.968V84.308h-46.656V4.1H82.435zm155.376 0h22.608L221.395 4.1h-25.776l-39.024 100.8h22.32l7.632-20.592h43.488zm-44.064-39.888l14.4-38.736 14.544 38.736zM347.539 104.9l-19.872-37.296c12.24-4.896 19.584-16.272 19.584-30.528 0-18.864-13.824-32.976-34.704-32.976h-41.184v100.8h21.312V70.484h14.688l16.848 34.416zm-54.864-82.224h15.984c9.072 0 15.84 4.752 15.84 14.4 0 9.36-6.336 14.4-15.84 14.4h-15.984zm69.84 82.224h67.392V85.316h-46.512V63.86h42.048V44.852h-42.048V23.108h46.512V4.1h-67.392zm126.144-58.176a32.72 32.72 0 0 0-5.904.576l29.664-21.744V4.1h-65.52v19.152h38.448l-25.92 19.44 9.36 21.888c2.16-.864 5.616-2.016 9.36-2.016 8.496 0 14.544 4.608 14.544 12.24 0 6.768-5.472 12.384-14.832 12.384-10.08 0-22.176-3.6-30.96-8.64v21.168c7.488 3.6 18.288 7.344 30.96 7.344 23.904 0 37.44-13.968 37.44-31.104 0-16.992-11.376-29.232-26.64-29.232zm82.944-5.904c-7.2 0-12.24 1.728-15.12 2.88l1.008-20.304h41.472V4.244h-60.336l-1.872 48.384 14.4 11.52c2.592-1.872 7.632-4.176 13.536-4.176 10.512 0 16.416 5.904 16.416 13.536 0 8.64-6.912 13.824-15.696 13.824-10.368 0-21.312-3.6-30.096-8.64V99.86c7.632 3.456 18 7.344 31.392 7.344 23.184 0 37.008-15.12 37.008-33.696 0-19.728-13.824-32.688-32.112-32.688zm85.968 64.08h41.904c20.448 0 32.112-11.232 32.112-29.232 0-10.656-5.616-19.584-15.696-23.184 6.768-3.312 12.096-10.656 12.096-21.312 0-15.12-11.52-27.072-30.528-27.072h-39.888zm20.88-59.904V22.532h14.688c7.632 0 12.672 4.032 12.672 10.944 0 7.2-5.04 11.52-12.672 11.52zm0 41.04V61.7h16.848c8.64 0 13.824 4.608 13.824 12.096 0 7.776-5.76 12.24-13.824 12.24zm65.951 18.864h20.16V.5h-20.16zm70.848 2.16c22.752 0 38.448-16.416 38.448-37.584 0-21.024-15.696-37.296-38.448-37.296s-38.304 16.272-38.304 37.296c0 21.168 15.552 37.584 38.304 37.584zm0-19.008c-9.648 0-17.424-6.912-17.424-18.576 0-11.376 7.776-18.432 17.424-18.432 9.792 0 17.568 7.056 17.568 18.432 0 11.664-7.776 18.576-17.568 18.576zm82.656 47.952c25.488 0 36.432-13.536 36.432-33.264V34.484h-20.16v5.04c-4.32-4.464-11.232-7.344-19.584-7.344-19.008 0-32.256 14.112-32.256 34.848 0 21.024 13.248 35.424 32.256 35.424 8.352 0 15.264-3.456 19.584-7.488v7.776c0 10.08-5.616 14.832-17.28 14.832-8.208 0-19.296-3.168-28.8-9.792v19.872c6.048 3.888 17.712 8.352 29.808 8.352zm.72-51.552c-9.216 0-15.408-6.624-15.408-17.424 0-10.08 6.192-16.848 15.408-16.848 6.048 0 11.952 3.024 15.552 7.488V76.82c-3.744 4.464-9.504 7.632-15.552 7.632z"/></svg>
